<svg width="86" height="88" viewBox="0 0 86 88" fill="none" xmlns="http://www.w3.org/2000/svg">
<g opacity="0.29" filter="url(#filter0_di_2056_195)">
<circle cx="38" cy="38.5435" r="38" fill="#233038"/>
<circle cx="38" cy="38.5435" r="37.5" stroke="url(#paint0_linear_2056_195)"/>
</g>
<g filter="url(#filter1_di_2056_195)">
<circle cx="38" cy="38.5435" r="29" fill="#233038"/>
<circle cx="38" cy="38.5435" r="28.5" stroke="url(#paint1_linear_2056_195)"/>
</g>
<path d="M39.352 25.5832C38.2137 25.532 37.0718 25.5149 35.9317 25.6269C34.3659 25.7805 32.8326 26.0765 31.3859 26.7443C30.5272 27.1408 29.7281 27.6397 29.1021 28.3986L27.7345 40.0494C27.3901 37.3793 27.399 34.7269 27.9342 32.1051L27.9342 32.105C28.1935 30.8338 28.6851 29.6861 29.4872 28.7175L29.4878 28.7168C30.0476 28.0381 30.7726 27.5782 31.5954 27.1983L31.3859 26.7444L31.5955 27.1982C32.9714 26.5632 34.443 26.2754 35.9806 26.1245L35.9806 26.1245C37.0851 26.016 38.1991 26.0319 39.3293 26.0827M39.352 25.5832L39.3291 26.0827C39.3291 26.0827 39.3292 26.0827 39.3293 26.0827M39.352 25.5832L39.3295 26.0827C39.3294 26.0827 39.3293 26.0827 39.3293 26.0827M39.352 25.5832C41.2569 25.6705 43.1095 26.0158 44.8701 26.8429C46.5802 27.6454 47.6752 29.0038 48.2831 30.8345C48.7197 32.1474 48.9217 33.5057 49.0101 34.8888M39.3293 26.0827C41.1888 26.1679 42.9726 26.5039 44.6575 27.2955L44.6577 27.2956C46.2271 28.032 47.2378 29.273 47.8086 30.9921L47.8087 30.9923C48.2273 32.2513 48.4244 33.564 48.5111 34.9204M48.5111 34.9204L49.0101 34.8888M48.5111 34.9204C48.6294 36.7828 48.5203 38.6357 48.2571 40.489L48.2571 40.4891C48.0609 41.8724 47.6035 43.1291 46.7778 44.2001L47.1737 44.5054M48.5111 34.9204C48.5111 34.9205 48.5111 34.9206 48.5111 34.9206L49.0101 34.8888M49.0101 34.8888C49.131 36.7916 49.0191 38.6793 48.7522 40.5593C48.5465 42.0088 48.0631 43.3519 47.1737 44.5054M47.1737 44.5054C46.4071 45.4995 45.433 46.1787 44.2893 46.5904L46.7778 44.2001M47.1737 44.5054L46.7778 44.2001M46.7778 44.2001C46.0727 45.1143 45.1792 45.7386 44.1199 46.1199L44.1196 46.1201C42.5158 46.6988 40.8509 46.9694 39.1338 47.0624C38.2973 47.1076 37.4649 47.0725 36.6032 47.0363C36.5528 47.0342 36.5023 47.0321 36.4518 47.03C36.3073 47.0233 36.1557 47.044 36.0081 47.1153C35.9917 47.1232 35.9758 47.1315 35.9605 47.1402M46.7778 44.2001L35.9605 47.1402M35.9605 47.1402C36.1389 46.9288 36.3166 46.7168 36.4931 46.5039C36.6132 46.3598 36.7071 46.285 36.7912 46.2432C36.8702 46.204 36.973 46.1776 37.1379 46.1849L37.1381 46.1849C39.2474 46.2783 41.3305 46.041 43.3714 45.416L43.3716 45.416C44.2882 45.1347 45.1331 44.6826 45.8389 43.9465L45.8394 43.9461C46.8239 42.9169 47.326 41.6486 47.5413 40.2944L47.5413 40.2942C47.8206 38.5318 47.9262 36.7521 47.8024 34.9549L47.8024 34.9548C47.7161 33.7063 47.5344 32.4503 47.0956 31.2357C46.6923 30.1174 46.0721 29.08 44.9703 28.4194L44.9702 28.4194C44.0917 27.8929 43.1556 27.5474 42.1891 27.3235C40.2912 26.8804 38.3821 26.8164 36.4865 26.9224L36.4865 26.9224C35.155 26.9969 33.8467 27.2426 32.575 27.7221L32.5749 27.7221C30.6798 28.4373 29.4174 29.8055 28.8279 31.8209L35.9605 47.1402ZM41.3516 42.8059L41.3721 42.8069C41.4817 42.8126 41.5738 42.7926 41.6463 42.7554L41.6487 42.7541C42.3332 42.4069 42.7916 41.8307 43.0708 41.0477L43.0714 41.046C43.1087 40.9424 43.0872 40.8247 42.9651 40.7062C42.2682 40.0347 41.5554 39.4383 40.7504 39.0113C40.625 38.9455 40.525 38.9423 40.4447 38.9638C40.3591 38.9868 40.2523 39.0503 40.1465 39.1899L40.1451 39.1917C40.0774 39.2803 40.0178 39.3606 39.9559 39.4441C39.9053 39.5124 39.8531 39.5828 39.7935 39.6616C39.7934 39.6616 39.7934 39.6617 39.7933 39.6618L39.3945 39.3602L41.3516 42.8059ZM41.3516 42.8059L41.331 42.8065M41.3516 42.8059L41.331 42.8065M41.8749 43.2C42.6939 42.7846 43.2278 42.0959 43.5417 41.2156C43.6608 40.8855 43.5417 40.5687 43.3126 40.3467L41.8749 43.2ZM41.8749 43.2C41.7125 43.2835 41.5304 43.3158 41.3464 43.3063C41.1605 43.312 40.991 43.2532 40.8232 43.1811C38.9453 42.3748 37.2515 41.2612 35.8083 39.7605L41.8749 43.2ZM41.331 42.8065C41.2594 42.8087 41.1738 42.7875 41.0206 42.7217L41.0205 42.7216M41.331 42.8065L41.0205 42.7216M41.0205 42.7216C39.197 41.9387 37.5606 40.8612 36.1687 39.4139L36.1685 39.4137M41.0205 42.7216L36.1685 39.4137M36.1685 39.4137C34.5014 37.6826 33.2458 35.6789 32.4789 33.3439L32.4787 33.3434M36.1685 39.4137L32.4787 33.3434M32.4787 33.3434C32.3753 33.0297 32.369 32.7893 32.4193 32.5969C32.469 32.4068 32.5864 32.2152 32.816 32.0187L32.8163 32.0184M32.4787 33.3434L32.8163 32.0184M32.8163 32.0184C33.0736 31.7979 33.3327 31.5875 33.5988 31.3955L33.5988 31.3955M32.8163 32.0184L33.5988 31.3955M33.5988 31.3955L33.6006 31.3942M33.5988 31.3955L33.6006 31.3942M33.6006 31.3942C33.7855 31.2596 33.9221 31.2358 34.0142 31.2462C34.1053 31.2564 34.2324 31.3089 34.3821 31.4838L34.3825 31.4843M33.6006 31.3942L34.3825 31.4843M34.3825 31.4843C34.8969 32.0842 35.3596 32.7154 35.7334 33.4029L35.7334 33.403M34.3825 31.4843L35.7334 33.403M35.7334 33.403L35.7349 33.4057M35.7334 33.403L35.7349 33.4057M35.7349 33.4057C35.7981 33.5202 35.8515 33.6556 35.9004 33.8081L35.9004 33.8081M35.7349 33.4057L35.9004 33.8081M35.9004 33.8081L35.9013 33.8108M35.9004 33.8081L35.9013 33.8108M35.9013 33.8108C35.9421 33.9356 35.9437 34.0226 35.9315 34.0819C35.9206 34.1355 35.8927 34.197 35.8163 34.268L35.815 34.2692M35.9013 33.8108L35.815 34.2692M35.815 34.2692C35.6875 34.3884 35.5604 34.5025 35.4295 34.6202C35.3638 34.6792 35.2971 34.7391 35.2289 34.8009L35.2289 34.8009M35.815 34.2692L35.2289 34.8009M35.2289 34.8009L35.2266 34.803M35.2289 34.8009L35.2266 34.803M35.2266 34.803C34.8381 35.1598 34.7306 35.6217 34.8299 36.1001L34.8299 36.1002M35.2266 34.803L34.8299 36.1002M34.8299 36.1002C35.0935 37.3679 35.8389 38.2755 36.6752 39.028L34.8299 36.1002ZM39.2025 33.8407C39.202 33.8406 39.2014 33.8405 39.2009 33.8403L39.1133 34.2057M39.2025 33.8407L39.0708 33.8145C39.0751 33.8224 39.0793 33.8307 39.0833 33.8393C39.1182 33.9154 39.1176 33.9789 39.1146 34.0081C39.1143 34.0111 39.114 34.0138 39.1137 34.0161M39.2025 33.8407L39.1133 34.2057M39.2025 33.8407L40.3972 34.9274L40.0531 35.0442M39.1133 34.2057C39.0831 34.1983 39.0522 34.1935 39.0211 34.1892C39.0809 34.1268 39.1042 34.0611 39.1126 34.0216C39.113 34.0197 39.1133 34.0179 39.1137 34.0161M39.1133 34.2057C39.5642 34.3138 39.8962 34.5794 40.0531 35.0442M39.1137 34.0161C39.1133 34.0183 39.113 34.0202 39.1128 34.0216L39.113 34.0216L39.115 34.0081C39.1147 34.0106 39.1142 34.0133 39.1137 34.0161ZM38.9162 34.0269L38.9274 33.988L38.9298 33.9798L38.9804 33.8032C38.9791 33.8031 38.9777 33.803 38.9764 33.8028L38.9278 33.9795L38.9255 33.9877L38.916 34.0222M38.9162 34.0269L38.916 34.0222M38.9162 34.0269L38.889 34.1219M38.9162 34.0269L38.9242 34.1747C38.9116 34.1723 38.8992 34.1697 38.8869 34.1666L38.889 34.1219M38.916 34.0222L38.914 33.9856L38.9136 33.9773L38.904 33.7978L38.8958 33.9746L38.8955 33.9822L38.8891 34.1198M38.916 34.0222L38.8891 34.1198M38.8891 34.1198L38.889 34.1219M38.8891 34.1198L38.8769 34.1639L38.889 34.1219M40.0531 35.0442C40.0933 35.1627 40.1145 35.2881 40.1358 35.4141C40.138 35.4274 40.1403 35.4406 40.1426 35.4539C40.1955 35.4129 40.2502 35.3936 40.2914 35.3862C40.292 35.3861 40.2927 35.386 40.2933 35.3859M40.0531 35.0442L40.3974 34.928C40.4572 35.0859 40.4958 35.2541 40.5096 35.4283C40.507 35.427 40.5045 35.4256 40.5018 35.4243C40.4085 35.3764 40.328 35.3808 40.2961 35.3854C40.2951 35.3856 40.2942 35.3857 40.2933 35.3859M40.2933 35.3859C40.2942 35.3857 40.2952 35.3855 40.2961 35.3854L40.2961 35.3854L40.2914 35.3862C40.292 35.3861 40.2926 35.386 40.2933 35.3859ZM41.5395 36.0516C41.5392 36.0432 41.539 36.0349 41.5388 36.0266L41.6416 36.0106L41.711 36.0166L41.7125 36.0471L41.5395 36.0516ZM41.5395 36.0516L41.5401 36.0837C41.5424 36.2201 41.5452 36.3886 41.7289 36.3798M41.5395 36.0516L41.7125 36.0472L41.7289 36.3798M41.7289 36.3798C41.8871 36.372 41.8902 36.2393 41.8931 36.1134C41.8936 36.0892 41.8942 36.0653 41.8958 36.0426L41.713 36.0472L41.7289 36.3798ZM28.7644 43.3023C29.5462 44.7215 30.685 45.6566 32.1565 46.1631L28.7644 43.3023ZM28.7644 43.3023C28.2126 42.3006 27.8847 41.2071 27.7345 40.0495L28.7644 43.3023ZM33.995 49.4382C33.9077 49.5438 33.8277 49.6366 33.7498 49.717C33.8785 49.567 34.0077 49.4168 34.1371 49.2666C34.0899 49.3236 34.0427 49.3806 33.9955 49.4375L33.995 49.4382ZM32.6778 45.4295C32.6819 45.4467 32.6894 45.4913 32.688 45.5851L28.8279 31.8211C28.5307 32.8359 28.3696 33.8702 28.3248 34.9225L28.3248 34.9225C28.251 36.6564 28.1871 38.4513 28.5394 40.2386C29.0104 42.6294 30.2175 44.5131 32.5767 45.3825L32.5768 45.3825C32.635 45.4039 32.6646 45.4206 32.6778 45.4295ZM32.687 45.4368C32.6869 45.4368 32.686 45.4361 32.6845 45.4344C32.6863 45.4359 32.6871 45.4367 32.687 45.4368ZM32.6769 47.1533C32.6766 47.4878 32.6772 47.8236 32.6781 48.1612L32.6769 47.1533ZM36.6753 39.0281C37.1866 39.4883 37.7725 39.8812 38.4757 40.093L36.6753 39.0281ZM38.1807 30.7565C38.2307 30.7576 38.2805 30.7603 38.3303 30.7642L38.1723 31.1469C38.1788 31.1389 38.1851 31.1303 38.1912 31.1213C38.2336 31.0584 38.2456 30.9992 38.248 30.9658C38.2498 30.9417 38.2489 30.8817 38.2135 30.8103C38.2037 30.7905 38.1926 30.7726 38.1807 30.7565ZM41.711 36.0161L41.644 36.0102L41.7102 35.9999L41.711 36.0161ZM41.8958 36.0424L41.713 36.0471L41.8958 36.0424ZM38.6674 32.2756C38.5968 32.2664 38.5256 32.2588 38.454 32.253L38.7029 32.464C38.7069 32.435 38.7076 32.3878 38.6902 32.3317C38.6841 32.3119 38.6764 32.2932 38.6674 32.2756ZM40.5149 35.602L40.5147 35.6152C40.5132 35.728 40.5114 35.8571 40.376 35.879C40.2242 35.905 40.2041 35.7884 40.1854 35.6805C40.1824 35.6627 40.1793 35.6452 40.1758 35.6285L40.5149 35.602ZM38.0401 30.7581C38.0414 30.758 38.0428 30.758 38.0442 30.7579L38.0202 30.9491L38.0142 30.9967L38.0141 30.9975L37.9965 31.138L38.0135 30.9891L38.0136 30.9883L38.0182 30.9489L38.0401 30.7581ZM38.3331 30.7645C38.5015 30.778 38.6691 30.8059 38.8353 30.8344L38.3331 30.7645Z" fill="#F4F4F5" stroke="#F4F4F5"/>
<defs>
<filter id="filter0_di_2056_195" x="0" y="0.543457" width="85.8" height="86.8" filterUnits="userSpaceOnUse" color-interpolation-filters="sRGB">
<feFlood flood-opacity="0" result="BackgroundImageFix"/>
<feColorMatrix in="SourceAlpha" type="matrix" values="0 0 0 0 0 0 0 0 0 0 0 0 0 0 0 0 0 0 127 0" result="hardAlpha"/>
<feMorphology radius="5" operator="erode" in="SourceAlpha" result="effect1_dropShadow_2056_195"/>
<feOffset dx="7" dy="8"/>
<feGaussianBlur stdDeviation="3.9"/>
<feComposite in2="hardAlpha" operator="out"/>
<feColorMatrix type="matrix" values="0 0 0 0 0 0 0 0 0 0 0 0 0 0 0 0 0 0 0.25 0"/>
<feBlend mode="normal" in2="BackgroundImageFix" result="effect1_dropShadow_2056_195"/>
<feBlend mode="normal" in="SourceGraphic" in2="effect1_dropShadow_2056_195" result="shape"/>
<feColorMatrix in="SourceAlpha" type="matrix" values="0 0 0 0 0 0 0 0 0 0 0 0 0 0 0 0 0 0 127 0" result="hardAlpha"/>
<feOffset dx="4" dy="3"/>
<feGaussianBlur stdDeviation="5"/>
<feComposite in2="hardAlpha" operator="arithmetic" k2="-1" k3="1"/>
<feColorMatrix type="matrix" values="0 0 0 0 1 0 0 0 0 1 0 0 0 0 1 0 0 0 0.16 0"/>
<feBlend mode="normal" in2="shape" result="effect2_innerShadow_2056_195"/>
</filter>
<filter id="filter1_di_2056_195" x="9" y="9.54346" width="67.8" height="68.8" filterUnits="userSpaceOnUse" color-interpolation-filters="sRGB">
<feFlood flood-opacity="0" result="BackgroundImageFix"/>
<feColorMatrix in="SourceAlpha" type="matrix" values="0 0 0 0 0 0 0 0 0 0 0 0 0 0 0 0 0 0 127 0" result="hardAlpha"/>
<feMorphology radius="5" operator="erode" in="SourceAlpha" result="effect1_dropShadow_2056_195"/>
<feOffset dx="7" dy="8"/>
<feGaussianBlur stdDeviation="3.9"/>
<feComposite in2="hardAlpha" operator="out"/>
<feColorMatrix type="matrix" values="0 0 0 0 0 0 0 0 0 0 0 0 0 0 0 0 0 0 0.25 0"/>
<feBlend mode="normal" in2="BackgroundImageFix" result="effect1_dropShadow_2056_195"/>
<feBlend mode="normal" in="SourceGraphic" in2="effect1_dropShadow_2056_195" result="shape"/>
<feColorMatrix in="SourceAlpha" type="matrix" values="0 0 0 0 0 0 0 0 0 0 0 0 0 0 0 0 0 0 127 0" result="hardAlpha"/>
<feOffset dx="4" dy="3"/>
<feGaussianBlur stdDeviation="5"/>
<feComposite in2="hardAlpha" operator="arithmetic" k2="-1" k3="1"/>
<feColorMatrix type="matrix" values="0 0 0 0 1 0 0 0 0 1 0 0 0 0 1 0 0 0 0.16 0"/>
<feBlend mode="normal" in2="shape" result="effect2_innerShadow_2056_195"/>
</filter>
<linearGradient id="paint0_linear_2056_195" x1="4.60606" y1="-3.48685" x2="35.697" y2="68.4829" gradientUnits="userSpaceOnUse">
<stop stop-color="#828E96"/>
<stop offset="1" stop-color="#18232A"/>
</linearGradient>
<linearGradient id="paint1_linear_2056_195" x1="12.5152" y1="6.4677" x2="36.2424" y2="61.3919" gradientUnits="userSpaceOnUse">
<stop stop-color="#828E96"/>
<stop offset="1" stop-color="#18232A"/>
</linearGradient>
</defs>
</svg>
