<svg width="77" height="78" viewBox="0 0 77 78" fill="none" xmlns="http://www.w3.org/2000/svg">
<g opacity="0.29">
<g filter="url(#filter0_i_457_10272)">
<circle cx="38" cy="38.1641" r="38" fill="#9747FF"/>
</g>
<circle cx="38" cy="38.1641" r="37.5" stroke="#9747FF"/>
</g>
<g filter="url(#filter1_dii_457_10272)">
<circle cx="38" cy="38.1641" r="29" fill="#9747FF"/>
<circle cx="38" cy="38.1641" r="28.5" stroke="url(#paint0_linear_457_10272)"/>
</g>
<path d="M39.3521 25.2038C38.2139 25.1526 37.072 25.1355 35.9319 25.2475C34.3661 25.4011 32.8328 25.6971 31.386 26.3649C30.5274 26.7614 29.7282 27.2604 29.1023 28.0192L27.7347 39.67C27.3903 36.9999 27.3992 34.3475 27.9344 31.7257L27.9344 31.7256C28.1936 30.4544 28.6853 29.3067 29.4874 28.3381L29.488 28.3374C30.0478 27.6587 30.7728 27.1988 31.5956 26.8189L31.3861 26.365L31.5956 26.8188C32.9715 26.1838 34.4432 25.896 35.9807 25.7451L35.9808 25.7451C37.0853 25.6366 38.1993 25.6525 39.3294 25.7033M39.3521 25.2038L39.3292 25.7033C39.3293 25.7033 39.3294 25.7033 39.3294 25.7033M39.3521 25.2038L39.3296 25.7033C39.3296 25.7033 39.3295 25.7033 39.3294 25.7033M39.3521 25.2038C41.2571 25.2911 43.1097 25.6364 44.8703 26.4635C46.5804 27.266 47.6754 28.6244 48.2833 30.4552C48.7199 31.768 48.9219 33.1263 49.0103 34.5094M39.3294 25.7033C41.189 25.7885 42.9727 26.1245 44.6577 26.9161L44.6579 26.9162C46.2272 27.6526 47.2379 28.8936 47.8088 30.6127L47.8089 30.6129C48.2275 31.8719 48.4246 33.1846 48.5113 34.5411M48.5113 34.5411L49.0103 34.5094M48.5113 34.5411C48.6296 36.4034 48.5205 38.2563 48.2573 40.1096L48.2573 40.1097C48.061 41.493 47.6036 42.7498 46.778 43.8207L47.1739 44.126M48.5113 34.5411C48.5113 34.5411 48.5113 34.5412 48.5113 34.5412L49.0103 34.5094M49.0103 34.5094C49.1311 36.4122 49.0193 38.2999 48.7523 40.1799C48.5467 41.6294 48.0632 42.9725 47.1739 44.126M47.1739 44.126C46.4072 45.1201 45.4331 45.7993 44.2894 46.211L46.7779 43.8207M47.1739 44.126L46.7779 43.8207M46.7779 43.8207C46.0729 44.7349 45.1794 45.3592 44.1201 45.7405L44.1197 45.7407C42.5159 46.3194 40.851 46.59 39.134 46.683C38.2975 46.7282 37.465 46.6931 36.6033 46.6569C36.553 46.6548 36.5025 46.6527 36.4519 46.6506C36.3074 46.6439 36.1558 46.6646 36.0083 46.7359C35.9919 46.7438 35.976 46.7521 35.9606 46.7608M46.7779 43.8207L35.9606 46.7608M35.9606 46.7608C36.1391 46.5494 36.3167 46.3374 36.4933 46.1245C36.6133 45.9804 36.7073 45.9056 36.7914 45.8638C36.8704 45.8246 36.9731 45.7982 37.1381 45.8055L37.1382 45.8055C39.2475 45.899 41.3306 45.6616 43.3715 45.0366L43.3718 45.0366C44.2884 44.7553 45.1332 44.3032 45.8391 43.5672L45.8395 43.5667C46.8241 42.5375 47.3262 41.2693 47.5414 39.915L47.5415 39.9148C47.8208 38.1524 47.9264 36.3727 47.8026 34.5756L47.8026 34.5754C47.7162 33.3269 47.5345 32.0709 47.0958 30.8563C46.6925 29.7381 46.0722 28.7006 44.9705 28.04L44.9704 28.04C44.0919 27.5135 43.1558 27.168 42.1893 26.9441C40.2913 26.501 38.3823 26.437 36.4867 26.543L36.4866 26.543C35.1552 26.6175 33.8469 26.8632 32.5752 27.3427L32.5751 27.3427C30.68 28.0579 29.4176 29.4261 28.8281 31.4415L35.9606 46.7608ZM41.3517 42.4265L41.3723 42.4275C41.4819 42.4332 41.574 42.4132 41.6464 42.376L41.6489 42.3747C42.3334 42.0275 42.7917 41.4513 43.0709 40.6683L43.0715 40.6666C43.1089 40.563 43.0873 40.4453 42.9652 40.3268C42.2683 39.6553 41.5556 39.0589 40.7505 38.6319C40.6252 38.5661 40.5252 38.5629 40.4449 38.5844C40.3593 38.6074 40.2525 38.671 40.1467 38.8105L40.1453 38.8123C40.0775 38.9009 40.018 38.9812 39.956 39.0647C39.9054 39.133 39.8532 39.2034 39.7937 39.2822C39.7936 39.2822 39.7936 39.2823 39.7935 39.2824L39.3947 38.9808L41.3517 42.4265ZM41.3517 42.4265L41.3312 42.4271M41.3517 42.4265L41.3312 42.4271M41.8751 42.8206C42.694 42.4052 43.228 41.7165 43.5419 40.8362C43.6609 40.5061 43.5419 40.1893 43.3128 39.9673L41.8751 42.8206ZM41.8751 42.8206C41.7127 42.9041 41.5305 42.9364 41.3465 42.9269C41.1607 42.9326 40.9911 42.8738 40.8234 42.8017C38.9455 41.9954 37.2516 40.8818 35.8085 39.3811L41.8751 42.8206ZM41.3312 42.4271C41.2596 42.4293 41.1739 42.4081 41.0208 42.3423L41.0207 42.3422M41.3312 42.4271L41.0207 42.3422M41.0207 42.3422C39.1971 41.5593 37.5607 40.4818 36.1689 39.0345L36.1686 39.0343M41.0207 42.3422L36.1686 39.0343M36.1686 39.0343C34.5016 37.3032 33.2459 35.2995 32.4791 32.9645L32.4789 32.964M36.1686 39.0343L32.4789 32.964M32.4789 32.964C32.3755 32.6503 32.3692 32.4099 32.4195 32.2175C32.4691 32.0274 32.5866 31.8358 32.8162 31.6393L32.8165 31.639M32.4789 32.964L32.8165 31.639M32.8165 31.639C33.0737 31.4185 33.3328 31.2081 33.599 31.0161L33.599 31.0161M32.8165 31.639L33.599 31.0161M33.599 31.0161L33.6008 31.0148M33.599 31.0161L33.6008 31.0148M33.6008 31.0148C33.7857 30.8802 33.9222 30.8564 34.0144 30.8668C34.1055 30.877 34.2326 30.9295 34.3823 31.1045L34.3827 31.1049M33.6008 31.0148L34.3827 31.1049M34.3827 31.1049C34.8971 31.7048 35.3598 32.336 35.7336 33.0236L35.7336 33.0236M34.3827 31.1049L35.7336 33.0236M35.7336 33.0236L35.7351 33.0263M35.7336 33.0236L35.7351 33.0263M35.7351 33.0263C35.7983 33.1408 35.8517 33.2762 35.9006 33.4287L35.9006 33.4287M35.7351 33.0263L35.9006 33.4287M35.9006 33.4287L35.9015 33.4314M35.9006 33.4287L35.9015 33.4314M35.9015 33.4314C35.9422 33.5562 35.9438 33.6432 35.9317 33.7025C35.9208 33.7562 35.8929 33.8176 35.8165 33.8886L35.8152 33.8898M35.9015 33.4314L35.8152 33.8898M35.8152 33.8898C35.6877 34.009 35.5606 34.1231 35.4296 34.2408C35.3639 34.2998 35.2973 34.3597 35.2291 34.4215L35.2291 34.4215M35.8152 33.8898L35.2291 34.4215M35.2291 34.4215L35.2268 34.4236M35.2291 34.4215L35.2268 34.4236M35.2268 34.4236C34.8383 34.7804 34.7307 35.2423 34.8301 35.7207L34.8301 35.7208M35.2268 34.4236L34.8301 35.7208M34.8301 35.7208C35.0937 36.9885 35.8391 37.8961 36.6754 38.6486L34.8301 35.7208ZM39.2027 33.4614C39.2021 33.4612 39.2016 33.4611 39.201 33.461L39.1134 33.8263M39.2027 33.4614L39.071 33.4351C39.0753 33.443 39.0795 33.4513 39.0834 33.4599C39.1183 33.536 39.1178 33.5995 39.1148 33.6287C39.1145 33.6317 39.1142 33.6344 39.1138 33.6367M39.2027 33.4614L39.1134 33.8263M39.2027 33.4614L40.3974 34.548L40.0533 34.6648M39.1134 33.8263C39.0833 33.8189 39.0523 33.8141 39.0213 33.8098C39.0811 33.7474 39.1044 33.6817 39.1127 33.6422C39.1131 33.6403 39.1135 33.6385 39.1138 33.6367M39.1134 33.8263C39.5644 33.9344 39.8963 34.2 40.0533 34.6648M39.1138 33.6367C39.1135 33.6389 39.1132 33.6408 39.1129 33.6422L39.1131 33.6422L39.1152 33.6287C39.1148 33.6312 39.1144 33.6339 39.1138 33.6367ZM38.9164 33.6475L38.9276 33.6086L38.9299 33.6004L38.9806 33.4238C38.9792 33.4237 38.9779 33.4236 38.9766 33.4234L38.9279 33.6001L38.9257 33.6083L38.9162 33.6428M38.9164 33.6475L38.9162 33.6428M38.9164 33.6475L38.8892 33.7425M38.9164 33.6475L38.9243 33.7953C38.9118 33.7929 38.8994 33.7903 38.8871 33.7872L38.8892 33.7425M38.9162 33.6428L38.9142 33.6062L38.9138 33.5979L38.9042 33.4184L38.896 33.5952L38.8956 33.6028L38.8893 33.7404M38.9162 33.6428L38.8893 33.7404M38.8893 33.7404L38.8892 33.7425M38.8893 33.7404L38.8771 33.7846L38.8892 33.7425M40.0533 34.6648C40.0935 34.7833 40.1147 34.9087 40.136 35.0347C40.1382 35.048 40.1405 35.0612 40.1427 35.0745C40.1957 35.0336 40.2504 35.0142 40.2916 35.0068C40.2922 35.0067 40.2928 35.0066 40.2935 35.0065M40.0533 34.6648L40.3976 34.5486C40.4574 34.7065 40.496 34.8747 40.5097 35.049C40.5072 35.0476 40.5046 35.0462 40.502 35.0449C40.4087 34.997 40.3282 35.0014 40.2963 35.006C40.2953 35.0062 40.2944 35.0063 40.2935 35.0065M40.2935 35.0065C40.2944 35.0063 40.2954 35.0061 40.2963 35.006L40.2963 35.006L40.2915 35.0068C40.2922 35.0067 40.2928 35.0066 40.2935 35.0065ZM41.5396 35.6722C41.5394 35.6639 41.5392 35.6555 41.539 35.6472L41.6417 35.6312L41.7112 35.6372L41.7127 35.6677L41.5396 35.6722ZM41.5396 35.6722L41.5403 35.7043C41.5425 35.8407 41.5453 36.0092 41.729 36.0004M41.5396 35.6722L41.7127 35.6678L41.729 36.0004M41.729 36.0004C41.8873 35.9926 41.8903 35.8599 41.8932 35.734C41.8938 35.7098 41.8944 35.6859 41.896 35.6632L41.7131 35.6678L41.729 36.0004ZM28.7645 42.9229C29.5464 44.3421 30.6851 45.2772 32.1567 45.7837L28.7645 42.9229ZM28.7645 42.9229C28.2128 41.9212 27.8848 40.8277 27.7347 39.6701L28.7645 42.9229ZM33.9951 49.0588C33.9078 49.1644 33.8279 49.2572 33.7499 49.3376C33.8787 49.1876 34.0078 49.0375 34.1373 48.8872C34.0901 48.9442 34.0429 49.0012 33.9957 49.0581L33.9951 49.0588ZM32.678 45.0501C32.6821 45.0673 32.6896 45.1119 32.6882 45.2057L28.828 31.4417C28.5308 32.4565 28.3698 33.4909 28.3249 34.5431L28.3249 34.5431C28.2512 36.277 28.1873 38.0719 28.5396 39.8593C29.0106 42.25 30.2176 44.1337 32.5769 45.0031L32.577 45.0031C32.6352 45.0245 32.6647 45.0412 32.678 45.0501ZM32.6872 45.0574C32.6871 45.0574 32.6861 45.0567 32.6846 45.055C32.6865 45.0565 32.6873 45.0573 32.6872 45.0574ZM32.677 46.7739C32.6767 47.1084 32.6774 47.4442 32.6782 47.7818L32.677 46.7739ZM36.6755 38.6487C37.1868 39.109 37.7727 39.5018 38.4759 39.7136L36.6755 38.6487ZM38.1809 30.3772C38.2308 30.3782 38.2807 30.3809 38.3305 30.3849L38.1725 30.7675C38.1789 30.7595 38.1853 30.7509 38.1914 30.7419C38.2338 30.679 38.2457 30.6198 38.2482 30.5864C38.2499 30.5623 38.2491 30.5023 38.2137 30.4309C38.2039 30.4111 38.1927 30.3932 38.1809 30.3772ZM41.7112 35.6368L41.6442 35.6308L41.7104 35.6205L41.7112 35.6368ZM41.896 35.663L41.7131 35.6677L41.896 35.663ZM38.6675 31.8962C38.5969 31.887 38.5258 31.8794 38.4541 31.8736L38.7031 32.0847C38.707 32.0556 38.7078 32.0084 38.6904 31.9523C38.6843 31.9325 38.6765 31.9138 38.6675 31.8962ZM40.5151 35.2226L40.5149 35.2358C40.5133 35.3486 40.5116 35.4777 40.3762 35.4996C40.2244 35.5256 40.2042 35.4091 40.1856 35.3011C40.1825 35.2833 40.1795 35.2658 40.1759 35.2492L40.5151 35.2226ZM38.0402 30.3787C38.0416 30.3786 38.043 30.3786 38.0444 30.3785L38.0204 30.5697L38.0144 30.6173L38.0143 30.6181L37.9966 30.7586L38.0137 30.6097L38.0138 30.6089L38.0183 30.5695L38.0402 30.3787ZM38.3332 30.3851C38.5017 30.3986 38.6692 30.4265 38.8355 30.455L38.3332 30.3851Z" fill="white" stroke="white"/>
<defs>
<filter id="filter0_i_457_10272" x="0" y="0.164062" width="80" height="79" filterUnits="userSpaceOnUse" color-interpolation-filters="sRGB">
<feFlood flood-opacity="0" result="BackgroundImageFix"/>
<feBlend mode="normal" in="SourceGraphic" in2="BackgroundImageFix" result="shape"/>
<feColorMatrix in="SourceAlpha" type="matrix" values="0 0 0 0 0 0 0 0 0 0 0 0 0 0 0 0 0 0 127 0" result="hardAlpha"/>
<feOffset dx="4" dy="3"/>
<feGaussianBlur stdDeviation="5"/>
<feComposite in2="hardAlpha" operator="arithmetic" k2="-1" k3="1"/>
<feColorMatrix type="matrix" values="0 0 0 0 1 0 0 0 0 1 0 0 0 0 1 0 0 0 0.6 0"/>
<feBlend mode="normal" in2="shape" result="effect1_innerShadow_457_10272"/>
</filter>
<filter id="filter1_dii_457_10272" x="6" y="4.16406" width="71" height="73.8" filterUnits="userSpaceOnUse" color-interpolation-filters="sRGB">
<feFlood flood-opacity="0" result="BackgroundImageFix"/>
<feColorMatrix in="SourceAlpha" type="matrix" values="0 0 0 0 0 0 0 0 0 0 0 0 0 0 0 0 0 0 127 0" result="hardAlpha"/>
<feMorphology radius="5" operator="erode" in="SourceAlpha" result="effect1_dropShadow_457_10272"/>
<feOffset dx="7" dy="8"/>
<feGaussianBlur stdDeviation="3.9"/>
<feComposite in2="hardAlpha" operator="out"/>
<feColorMatrix type="matrix" values="0 0 0 0 0.592157 0 0 0 0 0.278431 0 0 0 0 1 0 0 0 0.7 0"/>
<feBlend mode="normal" in2="BackgroundImageFix" result="effect1_dropShadow_457_10272"/>
<feBlend mode="normal" in="SourceGraphic" in2="effect1_dropShadow_457_10272" result="shape"/>
<feColorMatrix in="SourceAlpha" type="matrix" values="0 0 0 0 0 0 0 0 0 0 0 0 0 0 0 0 0 0 127 0" result="hardAlpha"/>
<feMorphology radius="5" operator="dilate" in="SourceAlpha" result="effect2_innerShadow_457_10272"/>
<feOffset dx="-3" dy="-5"/>
<feGaussianBlur stdDeviation="5"/>
<feComposite in2="hardAlpha" operator="arithmetic" k2="-1" k3="1"/>
<feColorMatrix type="matrix" values="0 0 0 0 0.137361 0 0 0 0 0.188457 0 0 0 0 0.220972 0 0 0 0.25 0"/>
<feBlend mode="normal" in2="shape" result="effect2_innerShadow_457_10272"/>
<feColorMatrix in="SourceAlpha" type="matrix" values="0 0 0 0 0 0 0 0 0 0 0 0 0 0 0 0 0 0 127 0" result="hardAlpha"/>
<feOffset dx="10" dy="10"/>
<feGaussianBlur stdDeviation="5"/>
<feComposite in2="hardAlpha" operator="arithmetic" k2="-1" k3="1"/>
<feColorMatrix type="matrix" values="0 0 0 0 1 0 0 0 0 1 0 0 0 0 1 0 0 0 0.38 0"/>
<feBlend mode="overlay" in2="effect2_innerShadow_457_10272" result="effect3_innerShadow_457_10272"/>
</filter>
<linearGradient id="paint0_linear_457_10272" x1="19" y1="17.5" x2="56.5" y2="61" gradientUnits="userSpaceOnUse">
<stop stop-color="white" stop-opacity="0.51"/>
<stop offset="1" stop-color="#9747FF"/>
</linearGradient>
</defs>
</svg>
